<?xml version="1.0" encoding="utf-8"?>
<!-- Generator: Adobe Illustrator 23.0.3, SVG Export Plug-In . SVG Version: 6.00 Build 0)  -->
<svg version="1.1" id="Layer_1" xmlns="http://www.w3.org/2000/svg" xmlns:xlink="http://www.w3.org/1999/xlink" x="0px" y="0px"
	 viewBox="0 0 195 60" style="enable-background:new 0 0 195 60;" xml:space="preserve">
<style type="text/css">
	.st0{fill:#FFFFFF;}
</style>
<g>
	<path class="st0" d="M47.3,42v-5.9h1.2v2.4h2.3v-2.4h1.2V42h-1.2v-2.5h-2.3V42H47.3z M55.9,42.1c-0.5,0-0.9-0.1-1.3-0.3
		c-0.4-0.2-0.7-0.4-0.9-0.7c-0.2-0.3-0.4-0.6-0.6-1c-0.2-0.7-0.2-1.5,0-2.2c0.1-0.4,0.3-0.7,0.6-1c0.3-0.3,0.6-0.5,0.9-0.7
		c0.4-0.2,0.8-0.3,1.3-0.3c0.5,0,0.9,0.1,1.3,0.3c0.4,0.2,0.7,0.4,0.9,0.7c0.3,0.3,0.4,0.6,0.6,1c0.1,0.4,0.2,0.7,0.2,1.1
		s-0.1,0.7-0.2,1.1c-0.1,0.4-0.3,0.7-0.6,1c-0.3,0.3-0.6,0.5-0.9,0.7C56.8,42,56.4,42.1,55.9,42.1 M55.9,41c0.4,0,0.7-0.1,0.9-0.3
		c0.3-0.2,0.4-0.4,0.6-0.7c0.3-0.6,0.3-1.3,0-1.9c-0.1-0.3-0.3-0.5-0.6-0.7c-0.3-0.2-0.6-0.3-0.9-0.3s-0.7,0.1-0.9,0.3
		c-0.2,0.2-0.4,0.4-0.6,0.7c-0.3,0.6-0.3,1.3,0,1.9c0.1,0.3,0.3,0.5,0.6,0.7C55.2,40.9,55.5,41,55.9,41 M55.9,44
		c-0.2,0-0.3-0.1-0.5-0.2c-0.1-0.1-0.2-0.3-0.2-0.4c0-0.2,0.1-0.3,0.2-0.4c0.1-0.1,0.3-0.2,0.5-0.2c0.2,0,0.3,0.1,0.4,0.2
		c0.1,0.1,0.2,0.3,0.2,0.4c0,0.2-0.1,0.3-0.2,0.4C56.2,43.9,56.1,44,55.9,44 M62.5,42.1c-0.5,0-0.9-0.1-1.3-0.3
		c-0.3-0.2-0.7-0.4-0.9-0.7c-0.2-0.3-0.4-0.6-0.6-1c-0.2-0.7-0.2-1.5,0-2.2c0.1-0.4,0.3-0.7,0.6-1c0.2-0.3,0.6-0.5,0.9-0.7
		c0.4-0.2,0.8-0.3,1.3-0.3c0.4,0,0.8,0.1,1,0.2c0.3,0.1,0.5,0.2,0.7,0.4c0.2,0.2,0.4,0.3,0.5,0.5c0.1,0.2,0.2,0.4,0.3,0.5
		c0.1,0.2,0.1,0.3,0.1,0.4l0,0.2h-1.2l0-0.1c0-0.1-0.1-0.2-0.1-0.3c-0.1-0.1-0.1-0.2-0.2-0.3c-0.1-0.1-0.3-0.2-0.4-0.3
		c-0.2-0.1-0.4-0.1-0.6-0.1c-0.4,0-0.7,0.1-0.9,0.3c-0.2,0.2-0.4,0.4-0.6,0.7c-0.2,0.6-0.2,1.3,0,1.8c0.1,0.3,0.3,0.5,0.6,0.7
		c0.3,0.2,0.6,0.3,0.9,0.3c0.3,0,0.5,0,0.6-0.1c0.3-0.1,0.5-0.3,0.7-0.6c0.1-0.1,0.1-0.2,0.1-0.3l0-0.1h1.2l0,0.2
		c-0.1,0.3-0.2,0.6-0.4,0.9c-0.1,0.2-0.3,0.4-0.5,0.5c-0.2,0.2-0.4,0.3-0.7,0.4C63.2,42,62.9,42.1,62.5,42.1 M69.5,42l-2-5.9h1.3
		l1.5,4.7l1.5-4.7h1.3l-2,5.9L69.5,42z M73.8,42v-5.9H75V42L73.8,42z M76.7,35.6l1-1.2h1l1,1.2h-1l-0.6-0.7l-0.6,0.7H76.7z M76.2,42
		v-5.9h4.1v1.1h-2.8v1.3h2.5v1h-2.5v1.4h2.9V42H76.2z M78,44c-0.2,0-0.3-0.1-0.5-0.2c-0.1-0.1-0.2-0.3-0.2-0.4
		c0-0.2,0.1-0.3,0.2-0.4c0.1-0.1,0.3-0.2,0.5-0.2c0.2,0,0.3,0.1,0.4,0.2c0.1,0.1,0.2,0.3,0.2,0.4c0,0.2-0.1,0.3-0.2,0.4
		C78.4,43.9,78.2,44,78,44 M81.3,42v-5.9h1.1l2.6,3.8v-3.8h1.2V42h-1.1l-2.5-3.7V42H81.3z M89.1,42v-5.9h1.2v2.4h2.3v-2.4h1.2V42
		h-1.2v-2.5h-2.3V42H89.1z M97.1,35.5L96.2,34h1.1l0.6,1.4L97.1,35.5z M94.7,42l2-5.9h1.6l2,5.9h-1.3l-0.4-1.2h-2.3L96,42H94.7z
		 M96.7,39.8h1.6l-0.8-2.5L96.7,39.8z M101.2,42v-5.9h1.1l2.6,3.8v-3.8h1.2V42h-1.1l-2.5-3.7V42H101.2z M109.9,42.1
		c-0.5,0-0.9-0.1-1.3-0.3c-0.4-0.2-0.7-0.4-0.9-0.7c-0.2-0.3-0.4-0.6-0.6-1c-0.2-0.7-0.2-1.5,0-2.2c0.1-0.4,0.3-0.7,0.6-1
		c0.3-0.3,0.6-0.5,0.9-0.7c0.4-0.2,0.8-0.3,1.3-0.3c0.4,0,0.7,0.1,1,0.2c0.3,0.1,0.5,0.2,0.7,0.4c0.2,0.2,0.3,0.3,0.5,0.5
		c0.1,0.2,0.2,0.3,0.3,0.5c0.1,0.2,0.1,0.3,0.1,0.4l0,0.1h-1.2l0-0.1c0-0.1-0.1-0.2-0.2-0.3c-0.1-0.1-0.3-0.3-0.4-0.3
		c-0.2-0.1-0.4-0.2-0.7-0.2c-0.4,0-0.7,0.1-1,0.3c-0.3,0.2-0.5,0.4-0.6,0.7c-0.1,0.3-0.2,0.6-0.2,0.9c0,0.3,0.1,0.6,0.2,1
		c0.1,0.3,0.3,0.5,0.6,0.7c0.3,0.2,0.6,0.3,1,0.3c0.4,0,0.8-0.1,1-0.3c0.3-0.2,0.4-0.5,0.4-0.9h-1.5v-1h2.8v0.5
		c0,0.6-0.1,1.1-0.4,1.6c-0.2,0.4-0.6,0.7-1,0.9C110.9,42,110.4,42.1,109.9,42.1 M115.3,42v-5.9h1.2v2.5l2.1-2.5h1.5l-2.5,2.8
		l2.6,3.1h-1.6l-2.2-2.6V42H115.3z M121,42v-5.9h1.2v2.4h2.3v-2.4h1.2V42h-1.2v-2.5h-2.3V42H121z M128.2,35.5l1-1.2h1l1,1.2h-1
		l-0.6-0.7l-0.6,0.7H128.2z M129.7,42.1c-0.5,0-0.9-0.1-1.3-0.3c-0.4-0.2-0.7-0.4-0.9-0.7c-0.2-0.3-0.4-0.6-0.6-1
		c-0.1-0.4-0.2-0.7-0.2-1.1c0-0.4,0.1-0.7,0.2-1.1c0.1-0.4,0.3-0.7,0.6-1c0.3-0.3,0.6-0.5,0.9-0.7c0.4-0.2,0.8-0.3,1.3-0.3
		c0.5,0,0.9,0.1,1.3,0.3c0.4,0.2,0.7,0.4,0.9,0.7c0.3,0.3,0.4,0.6,0.6,1c0.1,0.4,0.2,0.7,0.2,1.1c0,0.4-0.1,0.8-0.2,1.1
		c-0.1,0.4-0.3,0.7-0.6,1c-0.3,0.3-0.6,0.5-0.9,0.7C130.6,42,130.2,42.1,129.7,42.1 M129.7,41c0.4,0,0.7-0.1,0.9-0.3
		c0.3-0.2,0.4-0.4,0.6-0.7c0.3-0.6,0.3-1.3,0-1.9c-0.1-0.3-0.3-0.5-0.6-0.7c-0.3-0.2-0.6-0.3-0.9-0.3c-0.4,0-0.7,0.1-0.9,0.3
		c-0.3,0.2-0.4,0.4-0.6,0.7c-0.3,0.6-0.3,1.3,0,1.9c0.1,0.3,0.3,0.5,0.6,0.7C129,40.9,129.3,41,129.7,41 M133.5,42v-5.9h1.1l2.6,3.8
		v-3.8h1.2V42h-1.1l-2.5-3.7V42H133.5z M142.3,42.1c-0.5,0-0.9-0.1-1.3-0.3c-0.4-0.2-0.7-0.4-0.9-0.7c-0.2-0.3-0.4-0.6-0.6-1
		c-0.2-0.7-0.2-1.5,0-2.2c0.1-0.4,0.3-0.7,0.6-1c0.3-0.3,0.6-0.5,0.9-0.7c0.4-0.2,0.8-0.3,1.3-0.3c0.4,0,0.7,0.1,1,0.2
		c0.3,0.1,0.5,0.2,0.7,0.4c0.2,0.2,0.3,0.3,0.5,0.5c0.1,0.2,0.2,0.3,0.3,0.5c0.1,0.2,0.1,0.3,0.1,0.4l0,0.1h-1.2l0-0.1
		c0-0.1-0.1-0.2-0.2-0.3c-0.1-0.1-0.3-0.3-0.4-0.3c-0.2-0.1-0.4-0.2-0.7-0.2c-0.4,0-0.7,0.1-1,0.3c-0.3,0.2-0.5,0.4-0.6,0.7
		c-0.1,0.3-0.2,0.6-0.2,0.9c0,0.3,0.1,0.6,0.2,1c0.1,0.3,0.3,0.5,0.6,0.7c0.3,0.2,0.6,0.3,1,0.3c0.4,0,0.8-0.1,1-0.3
		c0.3-0.2,0.4-0.5,0.4-0.9h-1.5v-1h2.8v0.5c0,0.6-0.1,1.1-0.4,1.6c-0.2,0.4-0.6,0.7-1,0.9C143.3,42,142.8,42.1,142.3,42.1 M149.3,42
		l-2-5.9h1.3l1.5,4.7l1.5-4.7h1.3l-2,5.9H149.3z M153.6,42v-5.9h1.2V42H153.6z M156.6,35.6l1-1.2h1l1,1.2h-1l-0.6-0.7l-0.6,0.7
		H156.6z M156,42v-5.9h4.1v1.1h-2.8v1.3h2.5v1h-2.5v1.4h2.9V42H156z M157.9,44c-0.3,0-0.6-0.3-0.6-0.6c0,0,0,0,0,0
		c0-0.2,0.1-0.3,0.2-0.4c0.1-0.1,0.3-0.2,0.5-0.2c0.2,0,0.3,0.1,0.4,0.2c0.1,0.1,0.2,0.3,0.2,0.4c0,0.2-0.1,0.3-0.2,0.4
		C158.2,43.9,158,44,157.9,44 M162.7,42v-4.8h-1.8v-1.1h4.9v1.1h-1.8V42H162.7z M168.5,42v-5.9h1.1l2.6,3.8v-3.8h1.2V42h-1.1
		l-2.5-3.7V42H168.5z M174.1,42l2-5.9h1.6l2,5.9h-1.3l-0.4-1.2h-2.3l-0.4,1.2H174.1z M176.2,39.8h1.6l-0.8-2.5L176.2,39.8z
		 M180.6,42v-5.9h1.7l1.4,3l1.4-3h1.6V42h-1.2v-4l-1.2,2.6H183l-1.2-2.7v4H180.6z M48.9,52l-2-5.9h1.3l1.5,4.7l1.5-4.7h1.3l-2,5.9
		H48.9z M53.2,52v-5.9h1.2V52H53.2z M55.6,52v-5.9h4.1v1.1h-2.8v1.3h2.5v1h-2.5v1.4h2.9V52H55.6z M62.3,52v-4.8h-1.8v-1.1h4.9v1.1
		h-1.8V52H62.3z M66.2,52v-5.9h1.1l2.6,3.8v-3.8h1.2V52h-1.1l-2.5-3.7V52H66.2z M71.9,52l2-5.9h1.6l2,5.9h-1.3l-0.4-1.2h-2.3
		L73.2,52H71.9z M73.9,49.8h1.6l-0.8-2.5L73.9,49.8z M78.3,52v-5.9H80l1.4,3l1.4-3h1.6V52h-1.2v-4l-1.2,2.6h-1.1L79.5,48v4H78.3z
		 M87,52l2-5.9h1.6l2,5.9h-1.3L91,50.8h-2.3L88.3,52H87z M89,49.8h1.6l-0.8-2.5L89,49.8z M94.4,52l-2-5.9h1.3l1.5,4.7l1.5-4.7H98
		L96,52H94.4z M98.7,52v-5.9h1.2V52H98.7z M100.7,52l2-5.9h1.6l2,5.9h-1.3l-0.4-1.2h-2.3L102,52H100.7z M102.7,49.8h1.6l-0.8-2.5
		L102.7,49.8z M107.9,52v-4.8h-1.8v-1.1h4.9v1.1h-1.8V52H107.9z M111.8,52v-5.9h1.2V52H111.8z M116.9,52.1c-0.5,0-0.9-0.1-1.3-0.3
		c-0.4-0.2-0.7-0.4-0.9-0.7c-0.2-0.3-0.4-0.6-0.6-1c-0.2-0.7-0.2-1.5,0-2.2c0.1-0.4,0.3-0.7,0.6-1c0.3-0.3,0.6-0.5,0.9-0.7
		c0.4-0.2,0.8-0.3,1.3-0.3c0.5,0,0.9,0.1,1.3,0.3c0.4,0.2,0.7,0.4,0.9,0.7c0.3,0.3,0.4,0.6,0.6,1c0.1,0.4,0.2,0.7,0.2,1.1
		c0,0.4-0.1,0.7-0.2,1.1c-0.1,0.4-0.3,0.7-0.6,1c-0.3,0.3-0.6,0.5-0.9,0.7C117.9,52,117.4,52.1,116.9,52.1 M116.9,51
		c0.4,0,0.7-0.1,0.9-0.3c0.3-0.2,0.4-0.4,0.6-0.7c0.3-0.6,0.3-1.3,0-1.9c-0.1-0.3-0.3-0.5-0.6-0.7c-0.3-0.2-0.6-0.3-0.9-0.3
		c-0.4,0-0.7,0.1-0.9,0.3c-0.3,0.2-0.4,0.4-0.6,0.7c-0.3,0.6-0.3,1.3,0,1.9c0.1,0.3,0.3,0.5,0.6,0.7C116.2,50.9,116.6,51,116.9,51
		 M120.8,52v-5.9h1.1l2.6,3.8v-3.8h1.2V52h-1.1l-2.5-3.7V52H120.8z M128.3,52l2-5.9h1.6l2,5.9h-1.3l-0.4-1.2H130l-0.4,1.2H128.3z
		 M130.4,49.8h1.6l-0.8-2.5L130.4,49.8z M137.2,52.1c-0.5,0-0.9-0.1-1.3-0.3c-0.3-0.2-0.7-0.4-0.9-0.7c-0.2-0.3-0.4-0.6-0.6-1
		c-0.2-0.7-0.2-1.5,0-2.2c0.1-0.4,0.3-0.7,0.6-1c0.2-0.3,0.5-0.5,0.9-0.7c0.4-0.2,0.8-0.3,1.3-0.3c0.4,0,0.8,0.1,1,0.2
		c0.3,0.1,0.5,0.2,0.7,0.4c0.2,0.2,0.4,0.3,0.5,0.5c0.2,0.3,0.3,0.6,0.4,0.9l0,0.2h-1.2l0-0.1c0-0.1-0.1-0.2-0.1-0.3
		c-0.1-0.3-0.4-0.5-0.7-0.6c-0.2-0.1-0.4-0.1-0.6-0.1c-0.4,0-0.7,0.1-0.9,0.3c-0.2,0.2-0.4,0.4-0.6,0.7c-0.1,0.3-0.2,0.6-0.2,0.9
		c0,0.3,0.1,0.6,0.2,0.9c0.1,0.3,0.3,0.5,0.6,0.7c0.3,0.2,0.6,0.3,0.9,0.3c0.3,0,0.5,0,0.6-0.1c0.4-0.1,0.7-0.4,0.8-0.8l0-0.1h1.2
		l0,0.2c0,0.1-0.1,0.3-0.1,0.4c-0.1,0.2-0.2,0.3-0.3,0.5c-0.1,0.2-0.3,0.4-0.5,0.5c-0.2,0.2-0.4,0.3-0.7,0.4
		C138,52,137.6,52.1,137.2,52.1 M140.1,52l2-5.9h1.6l2,5.9h-1.3l-0.4-1.2h-2.3l-0.4,1.2H140.1z M142.1,49.8h1.6l-0.8-2.5L142.1,49.8
		z M146.6,52v-5.9h2.2c0.5,0,0.9,0.1,1.3,0.3c0.4,0.2,0.7,0.4,0.9,0.7c0.2,0.3,0.4,0.6,0.5,1c0.2,0.7,0.2,1.5,0,2.2
		c-0.1,0.4-0.3,0.7-0.5,1c-0.2,0.3-0.5,0.5-0.9,0.7c-0.4,0.2-0.8,0.2-1.3,0.2L146.6,52z M148.8,47.2h-1v3.7h1c0.4,0,0.7-0.1,1-0.3
		c0.3-0.2,0.4-0.4,0.6-0.7c0.1-0.3,0.2-0.6,0.2-0.9s-0.1-0.6-0.2-0.9c-0.1-0.3-0.3-0.5-0.6-0.7C149.5,47.3,149.1,47.2,148.8,47.2
		 M152.6,52v-5.9h4.1v1.1h-2.8v1.3h2.5v1h-2.5v1.4h2.9V52H152.6z M157.7,52v-5.9h1.7l1.4,3l1.4-3h1.6V52h-1.2v-4l-1.2,2.6h-1.1
		l-1.2-2.7v4H157.7z M166.5,52v-2l-2.1-3.9h1.4l1.3,2.6l1.3-2.6h1.4l-2.1,3.9v2H166.5z"/>
	<g>
		<path class="st0" d="M12.1,17.7c0.1,0.1,0.3,0.3,0.3,0.5l12.7,21.9c0,0.1,0.1,0.1,0.1,0.2c0.1,0.2,0.3,0.4,0.6,0.3
			c1-0.1,2.1-0.3,3.1-0.6c4.6-1,9-2.8,13.2-4.9c3.3-1.6,6.4-3.5,9.3-5.7c0.2-0.1,0.3-0.3,0.5-0.4c-0.4-0.1-9.7,1.5-12.3,2.1
			c0,0.3,0.2,0.5,0.3,0.8c0.1,0.2,0.3,0.1,0.4,0.1c1-0.2,2-0.5,2.9-0.7l7-1.7c0,0,0.1,0,0.2,0c-0.2,0.2-0.4,0.3-0.6,0.5
			c-4.9,3.4-10.3,6.1-16,7.9c-0.8,0.3-1.6,0.5-2.4,0.7c-0.4,0.1-0.4,0.1-0.6-0.3l-4-7.2c-3.7-6.5-7.3-13.1-11-19.6
			c-0.2-0.3-0.2-0.6,0-0.9c0.6-1,1.1-2.1,1.6-3.1c0-0.1,0.1-0.2,0.1-0.2c0.2,0.1,0.2,0.3,0.3,0.4c5.3,9.4,10.6,18.8,15.9,28.2
			c0.4,0.7,0.4,0.7,1.2,0.6c2.4-0.5,4.6-1.4,6.7-2.5c1.9-1,3.8-2.1,5.7-3.2c0.1,0,0.2-0.1,0.2-0.2c-0.1,0-0.2,0-0.3,0l-10.4,2.8
			c-0.5,0.1-0.5,0.1-0.8-0.3s-0.6-1-0.9-1.5c-0.1-0.1-0.2-0.3-0.2-0.5l18.5-2.6c-0.1,0.2-0.2,0.3-0.3,0.4c-3.1,2.4-6.3,4.6-9.8,6.4
			c-4.6,2.4-9.5,4.3-14.4,5.9c-1.8,0.6-3.7,1.1-5.5,1.6c-0.5,0.1-0.5,0.1-0.7-0.3L14,27.2c-1.2-2.1-2.3-4.1-3.5-6.2
			c-0.2-0.2-0.2-0.5,0-0.8C11.1,19.4,11.6,18.6,12.1,17.7"/>
		<path class="st0" d="M29.6,39.1c-1,0.3-1.9,0.4-2.8,0.6c-0.2,0-0.4-0.1-0.5-0.3c-0.7-1.3-1.5-2.6-2.2-3.9
			c-3.6-6.3-7.3-12.7-10.9-19c-0.2-0.3-0.2-0.7,0-0.9c0.5-0.9,1-1.8,1.5-2.7c0.1-0.1,0.1-0.3,0.3-0.4C19.8,21.4,24.7,30.2,29.6,39.1
			 M21.2,43.1c-0.6,0.1-1.3,0.2-1.9,0.2c-2.2,0.2-4.5,0.3-6.7,0.6c-0.6,0.1-0.8-0.1-1.1-0.6c-0.9-1.7-1.9-3.3-2.8-5
			c-0.1-0.1-0.2-0.3-0.2-0.5c0.4,0,0.8-0.1,1.2-0.1l6.3-0.5c0.5,0,1-0.1,1.4-0.1c0.3-0.1,0.5,0.1,0.6,0.4c0.6,1.1,1.2,2.2,1.8,3.2
			C20.2,41.4,20.7,42.3,21.2,43.1 M21.2,47l-4.4,3.6c-0.5,0.4-1,0.8-1.5,1.3c-0.2,0.1-0.4,0.2-0.6,0.2c-0.5,0-0.9,0-1.4,0
			c-0.1-0.2,0.1-0.2,0.2-0.3c2.8-2.2,5.5-4.5,8.3-6.7c0.1-0.1,0.2-0.2,0.3-0.2h2c-0.8,2.3-1.5,4.6-2.3,7c0.2,0,0.4-0.1,0.5-0.3
			c2.6-2.1,5.2-4.2,7.8-6.3c0.3-0.3,0.7-0.4,1.1-0.4c0.3,0,0.6,0,0.9,0c0.7,0,0.6,0,0.4,0.6c-0.4,1.3-0.9,2.6-1.3,3.9
			c-0.3,0.8-0.5,1.6-0.8,2.4c0,0.2-0.2,0.4-0.4,0.3c-0.6,0-1.1,0-1.7,0c0-0.2,0-0.4,0.1-0.5c0.5-1.3,0.9-2.7,1.4-4
			c0-0.1,0.1-0.3,0.1-0.4c0-0.1,0.1-0.1,0-0.2c0,0-0.1,0-0.1,0.1L26,50.1c-0.7,0.6-1.4,1.2-2.2,1.7c-0.2,0.1-0.3,0.2-0.6,0.2
			c-1.1,0-2.3,0-3.4,0c-0.1,0-0.1,0-0.2,0c0-0.2,0-0.4,0.1-0.6c0.4-1.3,0.9-2.6,1.4-3.9c0-0.1,0.1-0.3,0.1-0.4c0-0.1,0.1-0.1,0-0.2
			C21.3,47,21.2,47,21.2,47 M12.3,50c1.1-0.9,2.2-1.8,3.3-2.7c0.9-0.7,1.7-1.4,2.6-2.1c0.2-0.2,0.5-0.3,0.7-0.3c0.4,0,0.9,0,1.3,0
			c0,0.2-0.1,0.2-0.2,0.3l-8.2,6.6c-0.2,0.2-0.5,0.3-0.8,0.3c-0.5,0-1,0-1.5,0c-0.1-0.2,0-0.3,0-0.4c0.7-2.1,1.4-4.2,2.1-6.3
			c0.1-0.4,0.1-0.4,0.5-0.4h1.7l-1.7,4.9c0,0.1-0.1,0.1,0,0.2S12.2,50,12.3,50"/>
	</g>
</g>
</svg>
