<?xml version="1.0" encoding="utf-8"?>
<!-- Generator: Adobe Illustrator 23.0.3, SVG Export Plug-In . SVG Version: 6.00 Build 0)  -->
<svg version="1.1" id="Layer_1" xmlns="http://www.w3.org/2000/svg" xmlns:xlink="http://www.w3.org/1999/xlink" x="0px" y="0px"
	 viewBox="0 0 195 86" style="enable-background:new 0 0 195 86;" xml:space="preserve">
<style type="text/css">
	.st0{fill:#FFFFFF;}
</style>
<g>
	<path class="st0" d="M47.3,74v-5.9h1.2v2.4h2.3v-2.4h1.2V74h-1.2v-2.5h-2.3V74H47.3z M55.9,74.1c-0.5,0-0.9-0.1-1.3-0.3
		c-0.4-0.2-0.7-0.4-0.9-0.7c-0.2-0.3-0.4-0.6-0.6-1c-0.2-0.7-0.2-1.5,0-2.2c0.1-0.4,0.3-0.7,0.6-1c0.3-0.3,0.6-0.5,0.9-0.7
		c0.4-0.2,0.8-0.3,1.3-0.3c0.5,0,0.9,0.1,1.3,0.3c0.4,0.2,0.7,0.4,0.9,0.7c0.3,0.3,0.4,0.6,0.6,1c0.1,0.4,0.2,0.7,0.2,1.1
		s-0.1,0.7-0.2,1.1c-0.1,0.4-0.3,0.7-0.6,1c-0.3,0.3-0.6,0.5-0.9,0.7C56.8,74,56.4,74.1,55.9,74.1 M55.9,73c0.4,0,0.7-0.1,0.9-0.3
		c0.3-0.2,0.4-0.4,0.6-0.7c0.3-0.6,0.3-1.3,0-1.9c-0.1-0.3-0.3-0.5-0.6-0.7c-0.3-0.2-0.6-0.3-0.9-0.3s-0.7,0.1-0.9,0.3
		c-0.2,0.2-0.4,0.4-0.6,0.7c-0.3,0.6-0.3,1.3,0,1.9c0.1,0.3,0.3,0.5,0.6,0.7C55.2,72.9,55.5,73,55.9,73 M55.9,76
		c-0.2,0-0.3-0.1-0.5-0.2c-0.1-0.1-0.2-0.3-0.2-0.4c0-0.2,0.1-0.3,0.2-0.4c0.1-0.1,0.3-0.2,0.5-0.2c0.2,0,0.3,0.1,0.4,0.2
		c0.1,0.1,0.2,0.3,0.2,0.4c0,0.2-0.1,0.3-0.2,0.4C56.2,75.9,56.1,76,55.9,76 M62.5,74.1c-0.5,0-0.9-0.1-1.3-0.3
		c-0.3-0.2-0.7-0.4-0.9-0.7c-0.2-0.3-0.4-0.6-0.6-1c-0.2-0.7-0.2-1.5,0-2.2c0.1-0.4,0.3-0.7,0.6-1c0.2-0.3,0.6-0.5,0.9-0.7
		c0.4-0.2,0.8-0.3,1.3-0.3c0.4,0,0.8,0.1,1,0.2c0.3,0.1,0.5,0.2,0.7,0.4c0.2,0.2,0.4,0.3,0.5,0.5c0.1,0.2,0.2,0.4,0.3,0.5
		c0.1,0.2,0.1,0.3,0.1,0.4l0,0.2h-1.2l0-0.1c0-0.1-0.1-0.2-0.1-0.3c-0.1-0.1-0.1-0.2-0.2-0.3c-0.1-0.1-0.3-0.2-0.4-0.3
		c-0.2-0.1-0.4-0.1-0.6-0.1c-0.4,0-0.7,0.1-0.9,0.3c-0.2,0.2-0.4,0.4-0.6,0.7c-0.2,0.6-0.2,1.3,0,1.8c0.1,0.3,0.3,0.5,0.6,0.7
		c0.3,0.2,0.6,0.3,0.9,0.3c0.3,0,0.5,0,0.6-0.1c0.3-0.1,0.5-0.3,0.7-0.6c0.1-0.1,0.1-0.2,0.1-0.3l0-0.1h1.2l0,0.2
		c-0.1,0.3-0.2,0.6-0.4,0.9c-0.1,0.2-0.3,0.4-0.5,0.5c-0.2,0.2-0.4,0.3-0.7,0.4C63.2,74,62.9,74.1,62.5,74.1 M69.5,74l-2-5.9h1.3
		l1.5,4.7l1.5-4.7h1.3l-2,5.9L69.5,74z M73.8,74v-5.9H75V74L73.8,74z M76.7,67.6l1-1.2h1l1,1.2h-1l-0.6-0.7l-0.6,0.7H76.7z M76.2,74
		v-5.9h4.1v1.1h-2.8v1.3h2.5v1h-2.5v1.4h2.9V74H76.2z M78,76c-0.2,0-0.3-0.1-0.5-0.2c-0.1-0.1-0.2-0.3-0.2-0.4
		c0-0.2,0.1-0.3,0.2-0.4c0.1-0.1,0.3-0.2,0.5-0.2c0.2,0,0.3,0.1,0.4,0.2c0.1,0.1,0.2,0.3,0.2,0.4c0,0.2-0.1,0.3-0.2,0.4
		C78.4,75.9,78.2,76,78,76 M81.3,74v-5.9h1.1l2.6,3.8v-3.8h1.2V74h-1.1l-2.5-3.7V74H81.3z M89.1,74v-5.9h1.2v2.4h2.3v-2.4h1.2V74
		h-1.2v-2.5h-2.3V74H89.1z M97.1,67.5L96.2,66h1.1l0.6,1.4L97.1,67.5z M94.7,74l2-5.9h1.6l2,5.9h-1.3l-0.4-1.2h-2.3L96,74H94.7z
		 M96.7,71.8h1.6l-0.8-2.5L96.7,71.8z M101.2,74v-5.9h1.1l2.6,3.8v-3.8h1.2V74h-1.1l-2.5-3.7V74H101.2z M109.9,74.1
		c-0.5,0-0.9-0.1-1.3-0.3c-0.4-0.2-0.7-0.4-0.9-0.7c-0.2-0.3-0.4-0.6-0.6-1c-0.2-0.7-0.2-1.5,0-2.2c0.1-0.4,0.3-0.7,0.6-1
		c0.3-0.3,0.6-0.5,0.9-0.7c0.4-0.2,0.8-0.3,1.3-0.3c0.4,0,0.7,0.1,1,0.2c0.3,0.1,0.5,0.2,0.7,0.4c0.2,0.2,0.3,0.3,0.5,0.5
		c0.1,0.2,0.2,0.3,0.3,0.5c0.1,0.2,0.1,0.3,0.1,0.4l0,0.1h-1.2l0-0.1c0-0.1-0.1-0.2-0.2-0.3c-0.1-0.1-0.3-0.3-0.4-0.3
		c-0.2-0.1-0.4-0.2-0.7-0.2c-0.4,0-0.7,0.1-1,0.3c-0.3,0.2-0.5,0.4-0.6,0.7c-0.1,0.3-0.2,0.6-0.2,0.9c0,0.3,0.1,0.6,0.2,1
		c0.1,0.3,0.3,0.5,0.6,0.7c0.3,0.2,0.6,0.3,1,0.3c0.4,0,0.8-0.1,1-0.3c0.3-0.2,0.4-0.5,0.4-0.9h-1.5v-1h2.8v0.5
		c0,0.6-0.1,1.1-0.4,1.6c-0.2,0.4-0.6,0.7-1,0.9C110.9,74,110.4,74.1,109.9,74.1 M115.3,74v-5.9h1.2v2.5l2.1-2.5h1.5l-2.5,2.8
		l2.6,3.1h-1.6l-2.2-2.6V74H115.3z M121,74v-5.9h1.2v2.4h2.3v-2.4h1.2V74h-1.2v-2.5h-2.3V74H121z M128.2,67.5l1-1.2h1l1,1.2h-1
		l-0.6-0.7l-0.6,0.7H128.2z M129.7,74.1c-0.5,0-0.9-0.1-1.3-0.3c-0.4-0.2-0.7-0.4-0.9-0.7c-0.2-0.3-0.4-0.6-0.6-1
		c-0.1-0.4-0.2-0.7-0.2-1.1c0-0.4,0.1-0.7,0.2-1.1c0.1-0.4,0.3-0.7,0.6-1c0.3-0.3,0.6-0.5,0.9-0.7c0.4-0.2,0.8-0.3,1.3-0.3
		c0.5,0,0.9,0.1,1.3,0.3c0.4,0.2,0.7,0.4,0.9,0.7c0.3,0.3,0.4,0.6,0.6,1c0.1,0.4,0.2,0.7,0.2,1.1c0,0.4-0.1,0.8-0.2,1.1
		c-0.1,0.4-0.3,0.7-0.6,1c-0.3,0.3-0.6,0.5-0.9,0.7C130.6,74,130.2,74.1,129.7,74.1 M129.7,73c0.4,0,0.7-0.1,0.9-0.3
		c0.3-0.2,0.4-0.4,0.6-0.7c0.3-0.6,0.3-1.3,0-1.9c-0.1-0.3-0.3-0.5-0.6-0.7c-0.3-0.2-0.6-0.3-0.9-0.3c-0.4,0-0.7,0.1-0.9,0.3
		c-0.3,0.2-0.4,0.4-0.6,0.7c-0.3,0.6-0.3,1.3,0,1.9c0.1,0.3,0.3,0.5,0.6,0.7C129,72.9,129.3,73,129.7,73 M133.5,74v-5.9h1.1l2.6,3.8
		v-3.8h1.2V74h-1.1l-2.5-3.7V74H133.5z M142.3,74.1c-0.5,0-0.9-0.1-1.3-0.3c-0.4-0.2-0.7-0.4-0.9-0.7c-0.2-0.3-0.4-0.6-0.6-1
		c-0.2-0.7-0.2-1.5,0-2.2c0.1-0.4,0.3-0.7,0.6-1c0.3-0.3,0.6-0.5,0.9-0.7c0.4-0.2,0.8-0.3,1.3-0.3c0.4,0,0.7,0.1,1,0.2
		c0.3,0.1,0.5,0.2,0.7,0.4c0.2,0.2,0.3,0.3,0.5,0.5c0.1,0.2,0.2,0.3,0.3,0.5c0.1,0.2,0.1,0.3,0.1,0.4l0,0.1h-1.2l0-0.1
		c0-0.1-0.1-0.2-0.2-0.3c-0.1-0.1-0.3-0.3-0.4-0.3c-0.2-0.1-0.4-0.2-0.7-0.2c-0.4,0-0.7,0.1-1,0.3c-0.3,0.2-0.5,0.4-0.6,0.7
		c-0.1,0.3-0.2,0.6-0.2,0.9c0,0.3,0.1,0.6,0.2,1c0.1,0.3,0.3,0.5,0.6,0.7c0.3,0.2,0.6,0.3,1,0.3c0.4,0,0.8-0.1,1-0.3
		c0.3-0.2,0.4-0.5,0.4-0.9h-1.5v-1h2.8v0.5c0,0.6-0.1,1.1-0.4,1.6c-0.2,0.4-0.6,0.7-1,0.9C143.3,74,142.8,74.1,142.3,74.1 M149.3,74
		l-2-5.9h1.3l1.5,4.7l1.5-4.7h1.3l-2,5.9H149.3z M153.6,74v-5.9h1.2V74H153.6z M156.6,67.6l1-1.2h1l1,1.2h-1l-0.6-0.7l-0.6,0.7
		H156.6z M156,74v-5.9h4.1v1.1h-2.8v1.3h2.5v1h-2.5v1.4h2.9V74H156z M157.9,76c-0.3,0-0.6-0.3-0.6-0.6c0,0,0,0,0,0
		c0-0.2,0.1-0.3,0.2-0.4c0.1-0.1,0.3-0.2,0.5-0.2c0.2,0,0.3,0.1,0.4,0.2c0.1,0.1,0.2,0.3,0.2,0.4c0,0.2-0.1,0.3-0.2,0.4
		C158.2,75.9,158,76,157.9,76 M162.7,74v-4.8h-1.8v-1.1h4.9v1.1h-1.8V74H162.7z M168.5,74v-5.9h1.1l2.6,3.8v-3.8h1.2V74h-1.1
		l-2.5-3.7V74H168.5z M174.1,74l2-5.9h1.6l2,5.9h-1.3l-0.4-1.2h-2.3l-0.4,1.2H174.1z M176.2,71.8h1.6l-0.8-2.5L176.2,71.8z
		 M180.6,74v-5.9h1.7l1.4,3l1.4-3h1.6V74h-1.2v-4l-1.2,2.6H183l-1.2-2.7v4H180.6z M48.9,84l-2-5.9h1.3l1.5,4.7l1.5-4.7h1.3l-2,5.9
		H48.9z M53.2,84v-5.9h1.2V84H53.2z M55.6,84v-5.9h4.1v1.1h-2.8v1.3h2.5v1h-2.5v1.4h2.9V84H55.6z M62.3,84v-4.8h-1.8v-1.1h4.9v1.1
		h-1.8V84H62.3z M66.2,84v-5.9h1.1l2.6,3.8v-3.8h1.2V84h-1.1l-2.5-3.7V84H66.2z M71.9,84l2-5.9h1.6l2,5.9h-1.3l-0.4-1.2h-2.3
		L73.2,84H71.9z M73.9,81.8h1.6l-0.8-2.5L73.9,81.8z M78.3,84v-5.9H80l1.4,3l1.4-3h1.6V84h-1.2v-4l-1.2,2.6h-1.1L79.5,80v4H78.3z
		 M87,84l2-5.9h1.6l2,5.9h-1.3L91,82.8h-2.3L88.3,84H87z M89,81.8h1.6l-0.8-2.5L89,81.8z M94.4,84l-2-5.9h1.3l1.5,4.7l1.5-4.7H98
		L96,84H94.4z M98.7,84v-5.9h1.2V84H98.7z M100.7,84l2-5.9h1.6l2,5.9h-1.3l-0.4-1.2h-2.3L102,84H100.7z M102.7,81.8h1.6l-0.8-2.5
		L102.7,81.8z M107.9,84v-4.8h-1.8v-1.1h4.9v1.1h-1.8V84H107.9z M111.8,84v-5.9h1.2V84H111.8z M116.9,84.1c-0.5,0-0.9-0.1-1.3-0.3
		c-0.4-0.2-0.7-0.4-0.9-0.7c-0.2-0.3-0.4-0.6-0.6-1c-0.2-0.7-0.2-1.5,0-2.2c0.1-0.4,0.3-0.7,0.6-1c0.3-0.3,0.6-0.5,0.9-0.7
		c0.4-0.2,0.8-0.3,1.3-0.3c0.5,0,0.9,0.1,1.3,0.3c0.4,0.2,0.7,0.4,0.9,0.7c0.3,0.3,0.4,0.6,0.6,1c0.1,0.4,0.2,0.7,0.2,1.1
		c0,0.4-0.1,0.7-0.2,1.1c-0.1,0.4-0.3,0.7-0.6,1c-0.3,0.3-0.6,0.5-0.9,0.7C117.9,84,117.4,84.1,116.9,84.1 M116.9,83
		c0.4,0,0.7-0.1,0.9-0.3c0.3-0.2,0.4-0.4,0.6-0.7c0.3-0.6,0.3-1.3,0-1.9c-0.1-0.3-0.3-0.5-0.6-0.7c-0.3-0.2-0.6-0.3-0.9-0.3
		c-0.4,0-0.7,0.1-0.9,0.3c-0.3,0.2-0.4,0.4-0.6,0.7c-0.3,0.6-0.3,1.3,0,1.9c0.1,0.3,0.3,0.5,0.6,0.7C116.2,82.9,116.6,83,116.9,83
		 M120.8,84v-5.9h1.1l2.6,3.8v-3.8h1.2V84h-1.1l-2.5-3.7V84H120.8z M128.3,84l2-5.9h1.6l2,5.9h-1.3l-0.4-1.2H130l-0.4,1.2H128.3z
		 M130.4,81.8h1.6l-0.8-2.5L130.4,81.8z M137.2,84.1c-0.5,0-0.9-0.1-1.3-0.3c-0.3-0.2-0.7-0.4-0.9-0.7c-0.2-0.3-0.4-0.6-0.6-1
		c-0.2-0.7-0.2-1.5,0-2.2c0.1-0.4,0.3-0.7,0.6-1c0.2-0.3,0.5-0.5,0.9-0.7c0.4-0.2,0.8-0.3,1.3-0.3c0.4,0,0.8,0.1,1,0.2
		c0.3,0.1,0.5,0.2,0.7,0.4c0.2,0.2,0.4,0.3,0.5,0.5c0.2,0.3,0.3,0.6,0.4,0.9l0,0.2h-1.2l0-0.1c0-0.1-0.1-0.2-0.1-0.3
		c-0.1-0.3-0.4-0.5-0.7-0.6c-0.2-0.1-0.4-0.1-0.6-0.1c-0.4,0-0.7,0.1-0.9,0.3c-0.2,0.2-0.4,0.4-0.6,0.7c-0.1,0.3-0.2,0.6-0.2,0.9
		c0,0.3,0.1,0.6,0.2,0.9c0.1,0.3,0.3,0.5,0.6,0.7c0.3,0.2,0.6,0.3,0.9,0.3c0.3,0,0.5,0,0.6-0.1c0.4-0.1,0.7-0.4,0.8-0.8l0-0.1h1.2
		l0,0.2c0,0.1-0.1,0.3-0.1,0.4c-0.1,0.2-0.2,0.3-0.3,0.5c-0.1,0.2-0.3,0.4-0.5,0.5c-0.2,0.2-0.4,0.3-0.7,0.4
		C138,84,137.6,84.1,137.2,84.1 M140.1,84l2-5.9h1.6l2,5.9h-1.3l-0.4-1.2h-2.3l-0.4,1.2H140.1z M142.1,81.8h1.6l-0.8-2.5L142.1,81.8
		z M146.6,84v-5.9h2.2c0.5,0,0.9,0.1,1.3,0.3c0.4,0.2,0.7,0.4,0.9,0.7c0.2,0.3,0.4,0.6,0.5,1c0.2,0.7,0.2,1.5,0,2.2
		c-0.1,0.4-0.3,0.7-0.5,1c-0.2,0.3-0.5,0.5-0.9,0.7c-0.4,0.2-0.8,0.2-1.3,0.2L146.6,84z M148.8,79.2h-1v3.7h1c0.4,0,0.7-0.1,1-0.3
		c0.3-0.2,0.4-0.4,0.6-0.7c0.1-0.3,0.2-0.6,0.2-0.9s-0.1-0.6-0.2-0.9c-0.1-0.3-0.3-0.5-0.6-0.7C149.5,79.3,149.1,79.2,148.8,79.2
		 M152.6,84v-5.9h4.1v1.1h-2.8v1.3h2.5v1h-2.5v1.4h2.9V84H152.6z M157.7,84v-5.9h1.7l1.4,3l1.4-3h1.6V84h-1.2v-4l-1.2,2.6h-1.1
		l-1.2-2.7v4H157.7z M166.5,84v-2l-2.1-3.9h1.4l1.3,2.6l1.3-2.6h1.4l-2.1,3.9v2H166.5z"/>
	<g>
		<path class="st0" d="M12.1,49.7c0.1,0.1,0.3,0.3,0.3,0.5l12.7,21.9c0,0.1,0.1,0.1,0.1,0.2c0.1,0.2,0.3,0.4,0.6,0.3
			c1-0.1,2.1-0.3,3.1-0.6c4.6-1,9-2.8,13.2-4.9c3.3-1.6,6.4-3.5,9.3-5.7c0.2-0.1,0.3-0.3,0.5-0.4c-0.4-0.1-9.7,1.5-12.3,2.1
			c0,0.3,0.2,0.5,0.3,0.8c0.1,0.2,0.3,0.1,0.4,0.1c1-0.2,2-0.5,2.9-0.7l7-1.7c0,0,0.1,0,0.2,0c-0.2,0.2-0.4,0.3-0.6,0.5
			c-4.9,3.4-10.3,6.1-16,7.9c-0.8,0.3-1.6,0.5-2.4,0.7c-0.4,0.1-0.4,0.1-0.6-0.3l-4-7.2c-3.7-6.5-7.3-13.1-11-19.6
			c-0.2-0.3-0.2-0.6,0-0.9c0.6-1,1.1-2.1,1.6-3.1c0-0.1,0.1-0.2,0.1-0.2c0.2,0.1,0.2,0.3,0.3,0.4c5.3,9.4,10.6,18.8,15.9,28.2
			c0.4,0.7,0.4,0.7,1.2,0.6c2.4-0.5,4.6-1.4,6.7-2.5c1.9-1,3.8-2.1,5.7-3.2c0.1,0,0.2-0.1,0.2-0.2c-0.1,0-0.2,0-0.3,0l-10.4,2.8
			c-0.5,0.1-0.5,0.1-0.8-0.3s-0.6-1-0.9-1.5c-0.1-0.1-0.2-0.3-0.2-0.5l18.5-2.6c-0.1,0.2-0.2,0.3-0.3,0.4c-3.1,2.4-6.3,4.6-9.8,6.4
			c-4.6,2.4-9.5,4.3-14.4,5.9c-1.8,0.6-3.7,1.1-5.5,1.6c-0.5,0.1-0.5,0.1-0.7-0.3L14,59.2c-1.2-2.1-2.3-4.1-3.5-6.2
			c-0.2-0.2-0.2-0.5,0-0.8C11.1,51.4,11.6,50.6,12.1,49.7"/>
		<path class="st0" d="M29.6,71.1c-1,0.3-1.9,0.4-2.8,0.6c-0.2,0-0.4-0.1-0.5-0.3c-0.7-1.3-1.5-2.6-2.2-3.9
			c-3.6-6.3-7.3-12.7-10.9-19c-0.2-0.3-0.2-0.7,0-0.9c0.5-0.9,1-1.8,1.5-2.7c0.1-0.1,0.1-0.3,0.3-0.4C19.8,53.4,24.7,62.2,29.6,71.1
			 M21.2,75.1c-0.6,0.1-1.3,0.2-1.9,0.2c-2.2,0.2-4.5,0.3-6.7,0.6c-0.6,0.1-0.8-0.1-1.1-0.6c-0.9-1.7-1.9-3.3-2.8-5
			c-0.1-0.1-0.2-0.3-0.2-0.5c0.4,0,0.8-0.1,1.2-0.1l6.3-0.5c0.5,0,1-0.1,1.4-0.1c0.3-0.1,0.5,0.1,0.6,0.4c0.6,1.1,1.2,2.2,1.8,3.2
			C20.2,73.4,20.7,74.3,21.2,75.1 M21.2,79l-4.4,3.6c-0.5,0.4-1,0.8-1.5,1.3c-0.2,0.1-0.4,0.2-0.6,0.2c-0.5,0-0.9,0-1.4,0
			c-0.1-0.2,0.1-0.2,0.2-0.3c2.8-2.2,5.5-4.5,8.3-6.7c0.1-0.1,0.2-0.2,0.3-0.2h2c-0.8,2.3-1.5,4.6-2.3,7c0.2,0,0.4-0.1,0.5-0.3
			c2.6-2.1,5.2-4.2,7.8-6.3c0.3-0.3,0.7-0.4,1.1-0.4c0.3,0,0.6,0,0.9,0c0.7,0,0.6,0,0.4,0.6c-0.4,1.3-0.9,2.6-1.3,3.9
			c-0.3,0.8-0.5,1.6-0.8,2.4c0,0.2-0.2,0.4-0.4,0.3c-0.6,0-1.1,0-1.7,0c0-0.2,0-0.4,0.1-0.5c0.5-1.3,0.9-2.7,1.4-4
			c0-0.1,0.1-0.3,0.1-0.4c0-0.1,0.1-0.1,0-0.2c0,0-0.1,0-0.1,0.1L26,82.1c-0.7,0.6-1.4,1.2-2.2,1.7c-0.2,0.1-0.3,0.2-0.6,0.2
			c-1.1,0-2.3,0-3.4,0c-0.1,0-0.1,0-0.2,0c0-0.2,0-0.4,0.1-0.6c0.4-1.3,0.9-2.6,1.4-3.9c0-0.1,0.1-0.3,0.1-0.4c0-0.1,0.1-0.1,0-0.2
			C21.3,79,21.2,79,21.2,79 M12.3,82c1.1-0.9,2.2-1.8,3.3-2.7c0.9-0.7,1.7-1.4,2.6-2.1c0.2-0.2,0.5-0.3,0.7-0.3c0.4,0,0.9,0,1.3,0
			c0,0.2-0.1,0.2-0.2,0.3l-8.2,6.6c-0.2,0.2-0.5,0.3-0.8,0.3c-0.5,0-1,0-1.5,0c-0.1-0.2,0-0.3,0-0.4c0.7-2.1,1.4-4.2,2.1-6.3
			c0.1-0.4,0.1-0.4,0.5-0.4h1.7l-1.7,4.9c0,0.1-0.1,0.1,0,0.2C12.2,82.1,12.2,82,12.3,82"/>
	</g>
</g>
</svg>
